<svg xmlns="http://www.w3.org/2000/svg" width="12" height="12" viewBox="0 0 12 12" fill="none"><path d="M5.21698 4.1622V4.9884H4.61218V5.9982H5.21698V9H6.46018V5.9982H7.29418C7.29418 5.9982 7.37278 5.514 7.41058 4.9842H6.46498V4.2942C6.46498 4.1904 6.60058 4.0518 6.73498 4.0518H7.41178V3H6.49078C5.18638 3 5.21698 4.011 5.21698 4.1622Z" fill="#FAFAFF"></path><path d="M6 10.8C7.27304 10.8 8.49394 10.2943 9.39411 9.39411C10.2943 8.49394 10.8 7.27304 10.8 6C10.8 4.72696 10.2943 3.50606 9.39411 2.60589C8.49394 1.70571 7.27304 1.2 6 1.2C4.72696 1.2 3.50606 1.70571 2.60589 2.60589C1.70571 3.50606 1.2 4.72696 1.2 6C1.2 7.27304 1.70571 8.49394 2.60589 9.39411C3.50606 10.2943 4.72696 10.8 6 10.8ZM6 12C2.6862 12 0 9.3138 0 6C0 2.6862 2.6862 0 6 0C9.3138 0 12 2.6862 12 6C12 9.3138 9.3138 12 6 12Z" fill="#FAFAFF"></path></svg>