<svg xmlns="http://www.w3.org/2000/svg" width="96" height="74" viewBox="0 0 96 74" fill="none"><g filter="url(#filter0_d_4_2)"><path d="M6.06306 0.941751C5.4786 0.354641 4.52885 0.352491 3.94174 0.93695C3.35463 1.52141 3.35248 2.47115 3.93694 3.05826L6.06306 0.941751ZM46.3631 45.6769C46.9475 46.264 47.8973 46.2661 48.4844 45.6817C49.0715 45.0972 49.0736 44.1475 48.4892 43.5604L46.3631 45.6769ZM47.1312 43.9417C46.5467 44.5289 46.5489 45.4786 47.136 46.0631C47.7231 46.6475 48.6728 46.6454 49.2573 46.0583L47.1312 43.9417ZM92.0631 3.05826C92.6475 2.47115 92.6454 1.5214 92.0583 0.936942C91.4712 0.352483 90.5214 0.354632 89.9369 0.941743L92.0631 3.05826ZM3.93694 3.05826L46.3631 45.6769L48.4892 43.5604L6.06306 0.941751L3.93694 3.05826ZM49.2573 46.0583L92.0631 3.05826L89.9369 0.941743L47.1312 43.9417L49.2573 46.0583Z" fill="#FAFAFF"></path></g><g filter="url(#filter1_d_4_2)"><path d="M6.06306 20.9418C5.4786 20.3546 4.52885 20.3525 3.94174 20.937C3.35463 21.5214 3.35248 22.4712 3.93694 23.0583L6.06306 20.9418ZM46.3631 65.6769C46.9475 66.264 47.8973 66.2661 48.4844 65.6817C49.0715 65.0972 49.0736 64.1475 48.4892 63.5604L46.3631 65.6769ZM47.1312 63.9417C46.5467 64.5289 46.5489 65.4786 47.136 66.0631C47.7231 66.6475 48.6728 66.6454 49.2573 66.0583L47.1312 63.9417ZM92.0631 23.0583C92.6475 22.4711 92.6454 21.5214 92.0583 20.9369C91.4712 20.3525 90.5214 20.3546 89.9369 20.9417L92.0631 23.0583ZM3.93694 23.0583L46.3631 65.6769L48.4892 63.5604L6.06306 20.9418L3.93694 23.0583ZM49.2573 66.0583L92.0631 23.0583L89.9369 20.9417L47.1312 63.9417L49.2573 66.0583Z" fill="#FAFAFF"></path></g><defs><filter id="filter0_d_4_2" x="0.5" y="0.5" width="95" height="53" filterUnits="userSpaceOnUse" color-interpolation-filters="sRGB"><feGaussianBlur stdDeviation="1.5"></feGaussianBlur></filter><filter id="filter1_d_4_2" x="0.5" y="20.5" width="95" height="53" filterUnits="userSpaceOnUse" color-interpolation-filters="sRGB"><feGaussianBlur stdDeviation="1.5"></feGaussianBlur></filter></defs></svg>