<svg xmlns="http://www.w3.org/2000/svg" width="12" height="12" viewBox="0 0 12 12" fill="none"><path fill-rule="evenodd" clip-rule="evenodd" d="M3.52636 0.036C4.16618 0.00654545 4.37018 0 6 0C7.62982 0 7.83382 0.0070909 8.47309 0.036C9.11236 0.0649091 9.54873 0.166909 9.93055 0.314727C10.3304 0.465818 10.6931 0.702 10.9931 1.00745C11.2985 1.30691 11.5342 1.66909 11.6847 2.06945C11.8331 2.45127 11.9345 2.88764 11.964 3.52582C11.9935 4.16673 12 4.37073 12 6C12 7.62982 11.9929 7.83382 11.964 8.47364C11.9351 9.11182 11.8331 9.54818 11.6847 9.93C11.5342 10.3304 11.2982 10.6932 10.9931 10.9931C10.6931 11.2985 10.3304 11.5342 9.93055 11.6847C9.54873 11.8331 9.11236 11.9345 8.47418 11.964C7.83382 11.9935 7.62982 12 6 12C4.37018 12 4.16618 11.9929 3.52636 11.964C2.88818 11.9351 2.45182 11.8331 2.07 11.6847C1.66959 11.5342 1.30681 11.2981 1.00691 10.9931C0.701662 10.6935 0.465444 10.3308 0.314727 9.93055C0.166909 9.54873 0.0654545 9.11236 0.036 8.47418C0.00654545 7.83327 0 7.62927 0 6C0 4.37018 0.0070909 4.16618 0.036 3.52691C0.0649091 2.88764 0.166909 2.45127 0.314727 2.06945C0.465667 1.66914 0.702065 1.30653 1.00745 1.00691C1.30693 0.701728 1.66935 0.465515 2.06945 0.314727C2.45127 0.166909 2.88764 0.0654545 3.52582 0.036H3.52636ZM8.42455 1.116C7.79182 1.08709 7.602 1.08109 6 1.08109C4.398 1.08109 4.20818 1.08709 3.57545 1.116C2.99018 1.14273 2.67273 1.24036 2.46109 1.32273C2.18127 1.43182 1.98109 1.56109 1.77109 1.77109C1.57202 1.96476 1.41883 2.20052 1.32273 2.46109C1.24036 2.67273 1.14273 2.99018 1.116 3.57545C1.08709 4.20818 1.08109 4.398 1.08109 6C1.08109 7.602 1.08709 7.79182 1.116 8.42455C1.14273 9.00982 1.24036 9.32727 1.32273 9.53891C1.41873 9.79909 1.572 10.0353 1.77109 10.2289C1.96473 10.428 2.20091 10.5813 2.46109 10.6773C2.67273 10.7596 2.99018 10.8573 3.57545 10.884C4.20818 10.9129 4.39745 10.9189 6 10.9189C7.60255 10.9189 7.79182 10.9129 8.42455 10.884C9.00982 10.8573 9.32727 10.7596 9.53891 10.6773C9.81873 10.5682 10.0189 10.4389 10.2289 10.2289C10.428 10.0353 10.5813 9.79909 10.6773 9.53891C10.7596 9.32727 10.8573 9.00982 10.884 8.42455C10.9129 7.79182 10.9189 7.602 10.9189 6C10.9189 4.398 10.9129 4.20818 10.884 3.57545C10.8573 2.99018 10.7596 2.67273 10.6773 2.46109C10.5682 2.18127 10.4389 1.98109 10.2289 1.77109C10.0352 1.57204 9.79947 1.41884 9.53891 1.32273C9.32727 1.24036 9.00982 1.14273 8.42455 1.116ZM5.23364 7.84964C5.66163 8.0278 6.13821 8.05184 6.58196 7.91767C7.02572 7.78349 7.40912 7.49941 7.6667 7.11395C7.92427 6.72849 8.04003 6.26557 7.99421 5.80424C7.94838 5.34291 7.74382 4.9118 7.41545 4.58455C7.20613 4.37535 6.95302 4.21517 6.67436 4.11553C6.3957 4.0159 6.09842 3.97929 5.80391 4.00834C5.5094 4.03738 5.22499 4.13137 4.97117 4.28353C4.71734 4.43568 4.50041 4.64222 4.33598 4.88828C4.17156 5.13434 4.06374 5.41379 4.02028 5.70652C3.97682 5.99925 3.99881 6.29798 4.08466 6.58119C4.17051 6.8644 4.31808 7.12506 4.51676 7.34439C4.71543 7.56373 4.96027 7.73628 5.23364 7.84964ZM3.81927 3.81927C4.10565 3.5329 4.44563 3.30573 4.8198 3.15074C5.19397 2.99576 5.595 2.91599 6 2.91599C6.405 2.91599 6.80603 2.99576 7.1802 3.15074C7.55437 3.30573 7.89435 3.5329 8.18073 3.81927C8.4671 4.10565 8.69427 4.44563 8.84926 4.8198C9.00424 5.19397 9.08401 5.595 9.08401 6C9.08401 6.405 9.00424 6.80603 8.84926 7.1802C8.69427 7.55437 8.4671 7.89435 8.18073 8.18073C7.60236 8.75909 6.81793 9.08401 6 9.08401C5.18207 9.08401 4.39764 8.75909 3.81927 8.18073C3.24091 7.60236 2.91599 6.81793 2.91599 6C2.91599 5.18207 3.24091 4.39764 3.81927 3.81927ZM9.768 3.37527C9.83897 3.30833 9.89578 3.22783 9.93507 3.13853C9.97437 3.04924 9.99535 2.95296 9.99677 2.85542C9.9982 2.75787 9.98003 2.66103 9.94335 2.57062C9.90668 2.48022 9.85224 2.3981 9.78325 2.32911C9.71427 2.26013 9.63214 2.20569 9.54174 2.16901C9.45134 2.13233 9.3545 2.11417 9.25695 2.11559C9.1594 2.11701 9.06313 2.13799 8.97383 2.17729C8.88454 2.21658 8.80404 2.2734 8.73709 2.34436C8.6069 2.48238 8.53562 2.6657 8.53838 2.85542C8.54115 3.04513 8.61774 3.2263 8.7519 3.36046C8.88607 3.49462 9.06723 3.57122 9.25695 3.57398C9.44666 3.57675 9.62998 3.50547 9.768 3.37527Z" fill="#FAFAFF"></path></svg>